<?xml version="1.0" encoding="utf-8"?>
<!-- Generator: Adobe Illustrator 16.0.0, SVG Export Plug-In . SVG Version: 6.00 Build 0)  -->
<!DOCTYPE svg PUBLIC "-//W3C//DTD SVG 1.1//EN" "http://www.w3.org/Graphics/SVG/1.1/DTD/svg11.dtd">
<svg version="1.1" id="Layer_1" xmlns="http://www.w3.org/2000/svg" xmlns:xlink="http://www.w3.org/1999/xlink" x="0px" y="0px"
	 width="725.26611px" height="355.51025px" viewBox="0 0 725.26611 355.51025" enable-background="new 0 0 725.26611 355.51025"
	 xml:space="preserve">
<g id="GROUP1">
	<g id="ICON">
		<g>
			<path d="M264.33691,99.13477l-31.23828-13.29248c-10.0625-4.23926-17.48682-9.10498-22.26563-14.59814
				c-4.7832-5.49072-7.1748-11.99463-7.1748-19.50928c0-8.95996,3.11133-16.32861,9.34082-22.10693
				c6.22559-5.7832,14.22168-8.6748,23.98438-8.6748c7.67676,0,14.54785,2.00244,20.625,6.00146
				c6.07715,3.99756,11.56055,10.0918,16.4375,18.28027l21.52344-13.29834c-5.37695-10.49658-12.87891-18.44873-22.49023-23.84668
				C263.45996,2.7002,252.08008,0,238.93066,0c-17.93555,0-32.67969,4.91357-44.23779,14.74219
				c-11.55957,9.82227-17.3374,22.25244-17.3374,37.28369c0,12.91162,3.56445,23.98828,10.68799,33.23535
				c7.11865,9.25098,17.95508,16.81543,32.50439,22.69092l26.59766,10.97803c11.36133,4.82861,19.85742,10.72314,25.48242,17.71143
				c5.62891,6.97998,8.44336,15.19336,8.44336,24.63818c0,11.65234-4.0332,21.11768-12.10352,28.39014
				c-8.06934,7.27588-18.63184,10.91455-31.68262,10.91455c-11.05859,0-20.24951-3.29688-27.57129-9.90625
				c-7.32373-6.58789-12.58008-16.30322-15.7666-29.11914l-23.61523,11.27637c4.08447,15.70801,11.95459,27.81934,23.61523,36.3457
				c11.65625,8.53516,26.09863,12.78711,43.33789,12.78711c21.12109,0,38.08301-5.94629,50.88867-17.84863
				c12.80176-11.89453,19.19922-27.57471,19.19922-47.04102c0-13.2832-3.61035-24.79541-10.83203-34.53564
				C289.31445,112.81787,278.5791,105.01367,264.33691,99.13477z M462.29736,107.24072v23h62.52539
				c-1.5957,20-9.68945,37.19238-24.28906,50.05762c-14.58984,12.85938-32.85352,19.20996-54.77148,19.20996
				c-24.9082,0-45.4043-8.12793-61.5-24.31348c-16.0874-16.19141-24.1333-36.91895-24.1333-62.16504
				c0-26.78369,7.9248-48.46924,23.77002-65.03906c15.83398-16.57031,36.46289-24.86182,61.86328-24.86182
				c15.54492,0,29.19141,3.2002,40.94727,9.60547c11.75586,6.41113,21.56641,16.01709,29.44922,28.83105l21.80859-16.9082
				c-10.15625-14.83984-22.95508-25.94238-38.4082-33.31445C484.11963,3.97656,465.89111,0.2915,444.86182,0.2915
				c-15.83594,0-30.28516,2.30762-43.33984,6.93604c-13.04102,4.62256-24.49854,11.46484-34.36768,20.51904
				c-11.75488,10.79248-20.55273,23.29199-26.37598,37.50439c-5.83008,14.20703-8.74219,30.12939-8.74219,47.75879
				c0,21.39307,4.87695,40.49219,14.64355,57.30029c9.76465,16.80908,23.61133,29.99121,41.53955,39.52246
				c7.87305,4.04492,16.47266,7.12695,25.78711,9.25293c9.31641,2.12012,19.10352,3.18066,29.36328,3.18066
				c33.77148,0,60.2627-9.63867,79.79785-28.91309c19.51758-19.25732,29.12988-45.56201,29.12988-78.89648v-7.21582H462.29736z"/>
		</g>
	</g>
	<g>
		<path d="M34.35205,305.91943c4.61865,2.31836,8.09863,5.39648,10.44092,9.2334
			c2.3418,3.83887,3.5127,8.37988,3.5127,13.62402c0,7.67676-2.07568,13.86133-6.22559,18.55371
			c-4.15088,4.69336-9.65039,7.04004-16.49805,7.04004c-5.58838,0-10.27148-1.68164-14.05078-5.04492
			s-6.33105-8.1416-7.65527-14.33594l7.65527-4.44629c1.03369,5.05469,2.73779,8.88379,5.11182,11.48633
			c2.37402,2.60352,5.354,3.9043,8.93896,3.9043c4.23145,0,7.65527-1.43359,10.27197-4.30371
			c2.61621-2.86914,3.92432-6.60254,3.92432-11.20117c0-3.72363-0.91309-6.96289-2.7373-9.71777
			c-1.8252-2.75488-4.57861-5.08203-8.26123-6.9834l-8.62402-4.33203c-4.71631-2.31738-8.229-5.30078-10.53809-8.94922
			c-2.31006-3.64746-3.46436-8.01758-3.46436-13.11035c0-5.92773,1.87305-10.83008,5.62012-14.70605
			s8.52783-5.81445,14.3418-5.81445c4.26367,0,7.95361,1.06445,11.07129,3.19238c3.1167,2.12891,5.54736,5.26367,7.2915,9.40527
			l-6.97656,5.24414c-1.58301-3.22949-3.35986-5.63379-5.33008-7.21094c-1.97021-1.57617-4.19922-2.36523-6.68604-2.36523
			c-3.16602,0-5.7583,1.13965-7.77637,3.41992c-2.01904,2.28027-3.02832,5.1875-3.02832,8.7207
			c0,2.96484,0.77539,5.5293,2.32568,7.69531s3.95654,4.08594,7.21924,5.75781L34.35205,305.91943z"/>
		<path d="M71.9502,352.26123v-73.98828H51.89111v-9.46191h48.54834v9.46191H80.47754v73.98828H71.9502z"/>
		<path d="M109.83887,352.26123v-83.4502h37.4043v9.06348h-28.97363v23.94043h28.97363v9.23438h-28.97363v31.97754
			h28.97363v9.23438H109.83887z"/>
		<path d="M181.78857,355.51025l-29.99121-86.69922h9.15723l20.83398,63.8418l20.7373-63.8418h9.10889
			L181.78857,355.51025z"/>
		<path d="M219.09619,352.26123v-83.4502h37.4043v9.06348h-28.97363v23.94043h28.97363v9.23438h-28.97363v31.97754
			h28.97363v9.23438H219.09619z"/>
		<path d="M339.06152,309.16846h29.26465v2.79297c0,13.14844-3.16602,23.52246-9.49609,31.12305
			c-6.33105,7.60059-14.97168,11.39941-25.92188,11.39941c-3.32715,0-6.5-0.41797-9.52051-1.25391s-5.80664-2.05176-8.35742-3.64746
			c-5.81445-3.7627-10.30469-8.95801-13.46973-15.58984c-3.16602-6.63086-4.74805-14.16504-4.74805-22.60156
			c0-6.9541,0.94434-13.2334,2.83398-18.83887c1.88965-5.60449,4.74023-10.53516,8.55176-14.79199
			c3.19824-3.57129,6.91211-6.27051,11.14355-8.09375c4.23145-1.82422,8.91504-2.73633,14.05176-2.73633
			c6.81445,0,12.72559,1.45313,17.73242,4.36035s9.15723,7.28711,12.45215,13.13867l-7.07422,6.66992
			c-2.55176-5.05371-5.7334-8.84473-9.54492-11.37207s-8.23633-3.79102-13.27539-3.79102
			c-8.23633,0-14.92285,3.26855-20.05859,9.80469s-7.7041,15.08691-7.7041,25.65039c0,9.95703,2.6084,18.12695,7.8252,24.51074
			c5.21582,6.38379,11.8623,9.57617,19.9375,9.57617c7.10547,0,13.02539-2.53613,17.75781-7.60938
			c4.73145-5.07324,7.35645-11.67578,7.87305-19.80859h-20.25293V309.16846z"/>
		<path d="M380.92285,352.26123v-83.4502h8.43115v83.4502H380.92285z"/>
		<path d="M428.93799,265.50537l32.26953,86.75586h-9.1582l-9.20508-25.59375h-27.71484l-9.20508,25.59375h-9.15625
			L428.93799,265.50537z M428.93799,287.45068l-11.28906,30.72363h22.57813L428.93799,287.45068z"/>
		<path d="M494.34814,305.91943c4.61914,2.31836,8.09961,5.39648,10.44141,9.2334
			c2.3418,3.83887,3.51172,8.37988,3.51172,13.62402c0,7.67676-2.07422,13.86133-6.22461,18.55371
			c-4.15234,4.69336-9.65039,7.04004-16.49805,7.04004c-5.58789,0-10.27148-1.68164-14.05078-5.04492
			s-6.33203-8.1416-7.65625-14.33594l7.65625-4.44629c1.0332,5.05469,2.73633,8.88379,5.11133,11.48633
			c2.375,2.60352,5.35352,3.9043,8.93945,3.9043c4.23047,0,7.6543-1.43359,10.27148-4.30371
			c2.61719-2.86914,3.92383-6.60254,3.92383-11.20117c0-3.72363-0.91211-6.96289-2.73633-9.71777
			c-1.82617-2.75488-4.58008-5.08203-8.26172-6.9834l-8.625-4.33203c-4.71484-2.31738-8.22852-5.30078-10.53711-8.94922
			c-2.31055-3.64746-3.46484-8.01758-3.46484-13.11035c0-5.92773,1.87305-10.83008,5.62109-14.70605
			c3.74609-3.87598,8.52734-5.81445,14.3418-5.81445c4.26367,0,7.95313,1.06445,11.07031,3.19238
			c3.11719,2.12891,5.54883,5.26367,7.29297,9.40527l-6.97852,5.24414c-1.58203-3.22949-3.35938-5.63379-5.32813-7.21094
			c-1.9707-1.57617-4.19922-2.36523-6.6875-2.36523c-3.16602,0-5.75781,1.13965-7.77539,3.41992
			c-2.01953,2.28027-3.0293,5.1875-3.0293,8.7207c0,2.96484,0.77539,5.5293,2.32617,7.69531s3.95703,4.08594,7.21875,5.75781
			L494.34814,305.91943z"/>
		<path d="M545.36572,305.91943c4.61914,2.31836,8.09961,5.39648,10.44141,9.2334
			c2.3418,3.83887,3.51367,8.37988,3.51367,13.62402c0,7.67676-2.07617,13.86133-6.22656,18.55371
			c-4.15039,4.69336-9.65039,7.04004-16.49805,7.04004c-5.58789,0-10.27148-1.68164-14.05078-5.04492
			s-6.33008-8.1416-7.6543-14.33594l7.6543-4.44629c1.0332,5.05469,2.73828,8.88379,5.11133,11.48633
			c2.375,2.60352,5.35547,3.9043,8.93945,3.9043c4.23242,0,7.65625-1.43359,10.27148-4.30371
			c2.61719-2.86914,3.92578-6.60254,3.92578-11.20117c0-3.72363-0.91406-6.96289-2.73828-9.71777s-4.57813-5.08203-8.25977-6.9834
			l-8.625-4.33203c-4.7168-2.31738-8.22852-5.30078-10.53906-8.94922c-2.30859-3.64746-3.46289-8.01758-3.46289-13.11035
			c0-5.92773,1.87305-10.83008,5.61914-14.70605c3.74805-3.87598,8.52734-5.81445,14.3418-5.81445
			c4.26367,0,7.95313,1.06445,11.07227,3.19238c3.11523,2.12891,5.54688,5.26367,7.29102,9.40527l-6.97656,5.24414
			c-1.58398-3.22949-3.35938-5.63379-5.33008-7.21094c-1.9707-1.57617-4.19922-2.36523-6.68555-2.36523
			c-3.16602,0-5.75781,1.13965-7.77734,3.41992s-3.02734,5.1875-3.02734,8.7207c0,2.96484,0.77539,5.5293,2.32617,7.69531
			c1.54883,2.16602,3.95508,4.08594,7.21875,5.75781L545.36572,305.91943z"/>
		<path d="M643.14111,310.70752c0,5.96582-0.9375,11.59082-2.8125,16.87207
			c-1.87305,5.28223-4.60547,9.97559-8.19141,14.0791c-3.58984,4.10449-7.71875,7.26758-12.38867,9.49121
			c-4.66992,2.22266-9.50977,3.33398-14.51953,3.33398s-9.83398-1.11133-14.47266-3.33398
			c-4.63867-2.22363-8.75195-5.38672-12.33789-9.49121c-3.62109-4.1416-6.37695-8.85352-8.26758-14.13574
			s-2.83594-10.8877-2.83594-16.81543c0-5.96582,0.94531-11.60059,2.83594-16.90137s4.64648-10.02246,8.26758-14.16504
			c3.55469-4.06543,7.66016-7.2002,12.31445-9.40527c4.6543-2.20313,9.48633-3.30566,14.49609-3.30566
			c5.04102,0,9.89648,1.10254,14.56836,3.30566c4.66992,2.20508,8.7832,5.33984,12.33984,9.40527
			c3.58594,4.10449,6.31836,8.80664,8.19141,14.1084C642.20361,299.05029,643.14111,304.70361,643.14111,310.70752z
			 M605.229,345.13623c3.87891,0,7.57227-0.86426,11.08008-2.59375c3.50781-1.72852,6.66602-4.24707,9.48047-7.55273
			c2.7793-3.26758,4.89648-6.97266,6.35156-11.11523c1.45508-4.1416,2.18164-8.53027,2.18164-13.16699
			c0-4.6748-0.73438-9.12012-2.20703-13.33887c-1.4707-4.21777-3.58008-7.94141-6.32617-11.17188
			c-2.78125-3.26758-5.92578-5.75781-9.43164-7.46777c-3.50977-1.70996-7.21875-2.56445-11.12891-2.56445
			c-3.94531,0-7.67969,0.85449-11.20313,2.56445s-6.64258,4.2002-9.35742,7.46777
			c-2.78125,3.30566-4.89844,7.04883-6.35352,11.22949s-2.18164,8.60645-2.18164,13.28125
			c0,4.63672,0.71875,9.00586,2.1582,13.11035c1.4375,4.10352,3.56445,7.82813,6.37695,11.17188
			c2.84375,3.34473,6.00391,5.87109,9.48047,7.58105C597.62354,344.28076,601.31689,345.13623,605.229,345.13623z"/>
		<path d="M656.90088,352.26123v-86.75586l51.89258,66.69141v-63.38574h8.04297v86.69922l-51.89258-65.9502v62.70117
			H656.90088z"/>
	</g>
</g>
</svg>
